<svg width="40" height="40" xmlns="http://www.w3.org/2000/svg"><g fill="none" fill-rule="evenodd"><path d="M34.57 33.213h-6.655a1.02 1.02 0 01-1.02-1.02V17.52c0-.563.457-1.02 1.02-1.02h6.655c.564 0 1.02.457 1.02 1.02v14.675a1.02 1.02 0 01-1.02 1.02h0z" stroke="#B20C1C" stroke-width="1.5" stroke-linejoin="round"/><path d="M26.992 19h8.5m-8.5 10h8.5" stroke="#B20C1C" stroke-linecap="round" stroke-linejoin="round"/><path d="M26.727 27.893H6.182A2.192 2.192 0 014 25.69V9.202C4 7.986 4.977 7 6.182 7H30.8c1.205 0 2.183.986 2.183 2.202v6.33m-17.68 17.793l1.063-5.293h4.25l1.063 5.293" stroke="#B20C1C" stroke-width="1.5" stroke-linecap="round" stroke-linejoin="round"/><path d="M4.338 22H26.86" stroke="#B20C1C" stroke-linecap="round" stroke-linejoin="round"/><path d="M13.177 33.325h10.627" stroke="#B20C1C" stroke-width="1.5" stroke-linecap="round" stroke-linejoin="round"/><path d="M19.236 24.856c0 .385-.325.697-.725.697-.4 0-.725-.312-.725-.697 0-.384.325-.696.725-.696.4 0 .725.312.725.696m1.783-14.514c-1.04.219-1.899 1.214-2.315 2.504-.029.09-.105.212-.206.251l-.565.196c-.135.04-.261-.095-.302-.196-.42-1.081-1.098-1.789-1.889-1.618-.753.167-1.63 1.09-1.358 2.538.302 1.616 3.34 4.55 3.973 4.567.658.013 4.31-3.206 4.872-5.77.447-2.056-1.101-2.716-2.21-2.472z" fill="#B20C1C"/></g></svg>