<svg viewBox="0 0 113 100" xmlns="http://www.w3.org/2000/svg" fill-rule="evenodd" clip-rule="evenodd" stroke-linejoin="round" stroke-miterlimit="2"><path d="M6.01 50.452C.909 41.163-2.309 28.633 4.736 20.716c6.928-7.785 19.852-6.161 28.765-.759 8.837 5.355 15.6 13.466 22.189 21.426a135.126 135.126 0 0110.545-25.878C69.234 9.892 72.95 4.196 78.728 1.526c9.946-4.597 22.083 1.948 27.87 11.253a36.36 36.36 0 015.438 18.098c.349 12.688-5.939 24.592-13.091 35.078a191.662 191.662 0 01-21.166 25.858c-2.628 2.692-5.447 5.378-8.974 6.687-9.049 3.354-27.755-10.887-34.926-16.216C22.474 73.809 12.855 62.915 6.01 50.452z" fill="#b20c1c" fill-rule="nonzero"/></svg>